<svg xmlns="http://www.w3.org/2000/svg" xmlns:xlink="http://www.w3.org/1999/xlink" width="375" zoomAndPan="magnify" viewBox="0 0 375 374.999991" height="270" preserveAspectRatio="xMidYMid meet" version="1.0"><defs><g/><clipPath id="22fa5a5604"><path d="M 70.484375 206.730469 L 310.425781 206.730469 L 310.425781 216.761719 L 70.484375 216.761719 Z M 70.484375 206.730469 " clip-rule="nonzero"/></clipPath><clipPath id="9d544e7acd"><path d="M 70.484375 206.730469 L 72.65625 216.761719 L 310.425781 207.273438 L 310.289062 206.730469 Z M 70.484375 206.730469 " clip-rule="nonzero"/></clipPath></defs><g fill="#f2f2f2" fill-opacity="1"><g transform="translate(65.813061, 197.639855)"><g><path d="M 0.171875 -6.21875 L 4.8125 -12.03125 C 7.09375 -10.050781 9.285156 -8.601562 11.390625 -7.6875 C 13.503906 -6.78125 15.734375 -6.328125 18.078125 -6.328125 C 20.503906 -6.328125 22.445312 -6.773438 23.90625 -7.671875 C 25.363281 -8.566406 26.09375 -9.757812 26.09375 -11.25 C 26.09375 -12.59375 25.597656 -13.632812 24.609375 -14.375 C 23.617188 -15.125 21.96875 -15.6875 19.65625 -16.0625 L 11.875 -17.40625 C 8.507812 -17.96875 5.957031 -19.144531 4.21875 -20.9375 C 2.488281 -22.726562 1.625 -25.039062 1.625 -27.875 C 1.625 -31.53125 3.015625 -34.421875 5.796875 -36.546875 C 8.578125 -38.679688 12.335938 -39.75 17.078125 -39.75 C 19.910156 -39.75 22.769531 -39.265625 25.65625 -38.296875 C 28.550781 -37.328125 31.082031 -35.984375 33.25 -34.265625 L 28.890625 -28.21875 C 26.796875 -29.820312 24.738281 -31.003906 22.71875 -31.765625 C 20.707031 -32.535156 18.640625 -32.921875 16.515625 -32.921875 C 14.347656 -32.921875 12.609375 -32.519531 11.296875 -31.71875 C 9.992188 -30.914062 9.34375 -29.84375 9.34375 -28.5 C 9.34375 -27.300781 9.769531 -26.363281 10.625 -25.6875 C 11.488281 -25.019531 12.929688 -24.535156 14.953125 -24.234375 L 22.34375 -23.015625 C 26.21875 -22.378906 29.132812 -21.132812 31.09375 -19.28125 C 33.050781 -17.4375 34.03125 -15.003906 34.03125 -11.984375 C 34.03125 -8.171875 32.53125 -5.125 29.53125 -2.84375 C 26.53125 -0.570312 22.523438 0.5625 17.515625 0.5625 C 14.390625 0.5625 11.300781 -0.03125 8.25 -1.21875 C 5.207031 -2.414062 2.515625 -4.082031 0.171875 -6.21875 Z M 0.171875 -6.21875 "/></g></g></g><g fill="#f2f2f2" fill-opacity="1"><g transform="translate(99.729716, 197.639855)"><g><path d="M 1.671875 -14.5625 C 1.671875 -16.6875 2.070312 -18.671875 2.875 -20.515625 C 3.6875 -22.367188 4.789062 -23.972656 6.1875 -25.328125 C 7.582031 -26.691406 9.234375 -27.765625 11.140625 -28.546875 C 13.046875 -29.335938 15.082031 -29.734375 17.25 -29.734375 C 19.40625 -29.734375 21.4375 -29.335938 23.34375 -28.546875 C 25.25 -27.765625 26.898438 -26.691406 28.296875 -25.328125 C 29.703125 -23.972656 30.804688 -22.367188 31.609375 -20.515625 C 32.410156 -18.671875 32.8125 -16.6875 32.8125 -14.5625 C 32.8125 -12.425781 32.410156 -10.4375 31.609375 -8.59375 C 30.804688 -6.75 29.703125 -5.15625 28.296875 -3.8125 C 26.898438 -2.46875 25.25 -1.398438 23.34375 -0.609375 C 21.4375 0.171875 19.40625 0.5625 17.25 0.5625 C 15.082031 0.5625 13.046875 0.171875 11.140625 -0.609375 C 9.234375 -1.398438 7.582031 -2.46875 6.1875 -3.8125 C 4.789062 -5.15625 3.6875 -6.75 2.875 -8.59375 C 2.070312 -10.4375 1.671875 -12.425781 1.671875 -14.5625 Z M 17.25 -6.109375 C 19.488281 -6.109375 21.390625 -6.925781 22.953125 -8.5625 C 24.523438 -10.207031 25.3125 -12.207031 25.3125 -14.5625 C 25.3125 -16.945312 24.523438 -18.957031 22.953125 -20.59375 C 21.390625 -22.238281 19.488281 -23.0625 17.25 -23.0625 C 15.007812 -23.0625 13.101562 -22.238281 11.53125 -20.59375 C 9.96875 -18.957031 9.1875 -16.945312 9.1875 -14.5625 C 9.1875 -12.207031 9.96875 -10.207031 11.53125 -8.5625 C 13.101562 -6.925781 15.007812 -6.109375 17.25 -6.109375 Z M 17.25 -6.109375 "/></g></g></g><g fill="#f2f2f2" fill-opacity="1"><g transform="translate(132.750871, 197.639855)"><g><path d="M 1 -29.171875 L 7.5 -29.171875 L 7.5 -31.96875 C 7.5 -35.21875 8.453125 -37.71875 10.359375 -39.46875 C 12.265625 -41.21875 15.007812 -42.09375 18.59375 -42.09375 C 19.375 -42.09375 20.171875 -42.046875 20.984375 -41.953125 C 21.804688 -41.859375 22.519531 -41.738281 23.125 -41.59375 L 23.125 -35.15625 C 22.414062 -35.300781 21.789062 -35.410156 21.25 -35.484375 C 20.707031 -35.566406 20.132812 -35.609375 19.53125 -35.609375 C 18.082031 -35.609375 16.992188 -35.289062 16.265625 -34.65625 C 15.535156 -34.019531 15.171875 -33.066406 15.171875 -31.796875 L 15.171875 -29.171875 L 23.125 -29.171875 L 23.125 -22.734375 L 15.171875 -22.734375 L 15.171875 0 L 7.5 0 L 7.5 -22.734375 L 1 -22.734375 Z M 1 -29.171875 "/></g></g></g><g fill="#f2f2f2" fill-opacity="1"><g transform="translate(155.417805, 197.639855)"><g><path d="M 7 -8.234375 L 7 -22.734375 L 1 -22.734375 L 1 -29.171875 L 7 -29.171875 L 7 -36.609375 L 14.671875 -38.34375 L 14.671875 -29.171875 L 22.953125 -29.171875 L 22.953125 -22.734375 L 14.671875 -22.734375 L 14.671875 -9.796875 C 14.671875 -8.410156 14.96875 -7.4375 15.5625 -6.875 C 16.15625 -6.320312 17.203125 -6.046875 18.703125 -6.046875 C 19.410156 -6.046875 20.082031 -6.09375 20.71875 -6.1875 C 21.351562 -6.28125 22.039062 -6.457031 22.78125 -6.71875 L 22.78125 -0.453125 C 21.957031 -0.191406 20.96875 0.0195312 19.8125 0.1875 C 18.65625 0.363281 17.664062 0.453125 16.84375 0.453125 C 13.601562 0.453125 11.148438 -0.28125 9.484375 -1.75 C 7.828125 -3.226562 7 -5.390625 7 -8.234375 Z M 7 -8.234375 "/></g></g></g><g fill="#f2f2f2" fill-opacity="1"><g transform="translate(177.692956, 197.639855)"><g><path d="M 24.796875 0 L 24.796875 -2.40625 C 23.640625 -1.46875 22.351562 -0.765625 20.9375 -0.296875 C 19.519531 0.160156 18.046875 0.390625 16.515625 0.390625 C 14.460938 0.390625 12.53125 0 10.71875 -0.78125 C 8.90625 -1.5625 7.328125 -2.625 5.984375 -3.96875 C 4.640625 -5.3125 3.582031 -6.898438 2.8125 -8.734375 C 2.050781 -10.566406 1.671875 -12.523438 1.671875 -14.609375 C 1.671875 -16.703125 2.0625 -18.660156 2.84375 -20.484375 C 3.632812 -22.316406 4.703125 -23.90625 6.046875 -25.25 C 7.390625 -26.59375 8.984375 -27.644531 10.828125 -28.40625 C 12.679688 -29.175781 14.648438 -29.5625 16.734375 -29.5625 C 18.148438 -29.5625 19.539062 -29.363281 20.90625 -28.96875 C 22.269531 -28.582031 23.53125 -28.015625 24.6875 -27.265625 L 24.6875 -39.1875 L 32.359375 -40.875 L 32.359375 0 Z M 9.234375 -14.609375 C 9.234375 -12.253906 10.050781 -10.253906 11.6875 -8.609375 C 13.332031 -6.972656 15.351562 -6.15625 17.75 -6.15625 C 19.164062 -6.15625 20.460938 -6.394531 21.640625 -6.875 C 22.816406 -7.363281 23.832031 -8.054688 24.6875 -8.953125 L 24.6875 -20.328125 C 23.863281 -21.179688 22.84375 -21.847656 21.625 -22.328125 C 20.414062 -22.816406 19.125 -23.0625 17.75 -23.0625 C 15.320312 -23.0625 13.296875 -22.25 11.671875 -20.625 C 10.046875 -19 9.234375 -16.992188 9.234375 -14.609375 Z M 9.234375 -14.609375 "/></g></g></g><g fill="#f2f2f2" fill-opacity="1"><g transform="translate(211.609614, 197.639855)"><g><path d="M 1.671875 -14.5625 C 1.671875 -16.6875 2.070312 -18.671875 2.875 -20.515625 C 3.6875 -22.367188 4.789062 -23.972656 6.1875 -25.328125 C 7.582031 -26.691406 9.234375 -27.765625 11.140625 -28.546875 C 13.046875 -29.335938 15.082031 -29.734375 17.25 -29.734375 C 19.40625 -29.734375 21.4375 -29.335938 23.34375 -28.546875 C 25.25 -27.765625 26.898438 -26.691406 28.296875 -25.328125 C 29.703125 -23.972656 30.804688 -22.367188 31.609375 -20.515625 C 32.410156 -18.671875 32.8125 -16.6875 32.8125 -14.5625 C 32.8125 -12.425781 32.410156 -10.4375 31.609375 -8.59375 C 30.804688 -6.75 29.703125 -5.15625 28.296875 -3.8125 C 26.898438 -2.46875 25.25 -1.398438 23.34375 -0.609375 C 21.4375 0.171875 19.40625 0.5625 17.25 0.5625 C 15.082031 0.5625 13.046875 0.171875 11.140625 -0.609375 C 9.234375 -1.398438 7.582031 -2.46875 6.1875 -3.8125 C 4.789062 -5.15625 3.6875 -6.75 2.875 -8.59375 C 2.070312 -10.4375 1.671875 -12.425781 1.671875 -14.5625 Z M 17.25 -6.109375 C 19.488281 -6.109375 21.390625 -6.925781 22.953125 -8.5625 C 24.523438 -10.207031 25.3125 -12.207031 25.3125 -14.5625 C 25.3125 -16.945312 24.523438 -18.957031 22.953125 -20.59375 C 21.390625 -22.238281 19.488281 -23.0625 17.25 -23.0625 C 15.007812 -23.0625 13.101562 -22.238281 11.53125 -20.59375 C 9.96875 -18.957031 9.1875 -16.945312 9.1875 -14.5625 C 9.1875 -12.207031 9.96875 -10.207031 11.53125 -8.5625 C 13.101562 -6.925781 15.007812 -6.109375 17.25 -6.109375 Z M 17.25 -6.109375 "/></g></g></g><g fill="#f2f2f2" fill-opacity="1"><g transform="translate(244.630772, 197.639855)"><g><path d="M 3.015625 0 L 3.015625 -29.171875 L 10.6875 -29.171875 L 10.6875 -26.875 C 11.8125 -27.800781 13.050781 -28.507812 14.40625 -29 C 15.769531 -29.488281 17.253906 -29.734375 18.859375 -29.734375 C 22.222656 -29.734375 24.988281 -28.648438 27.15625 -26.484375 C 29.320312 -24.316406 30.40625 -21.535156 30.40625 -18.140625 L 30.40625 0 L 22.734375 0 L 22.734375 -17.015625 C 22.734375 -18.847656 22.179688 -20.320312 21.078125 -21.4375 C 19.972656 -22.5625 18.507812 -23.125 16.6875 -23.125 C 15.414062 -23.125 14.265625 -22.867188 13.234375 -22.359375 C 12.210938 -21.859375 11.363281 -21.140625 10.6875 -20.203125 L 10.6875 0 Z M 3.015625 0 "/></g></g></g><g fill="#f2f2f2" fill-opacity="1"><g transform="translate(276.364653, 197.639855)"><g><path d="M 29.171875 -3.640625 C 27.378906 -2.179688 25.539062 -1.113281 23.65625 -0.4375 C 21.769531 0.226562 19.671875 0.5625 17.359375 0.5625 C 15.148438 0.5625 13.082031 0.171875 11.15625 -0.609375 C 9.238281 -1.398438 7.582031 -2.46875 6.1875 -3.8125 C 4.789062 -5.15625 3.6875 -6.75 2.875 -8.59375 C 2.070312 -10.4375 1.671875 -12.425781 1.671875 -14.5625 C 1.671875 -16.644531 2.050781 -18.609375 2.8125 -20.453125 C 3.582031 -22.304688 4.640625 -23.914062 5.984375 -25.28125 C 7.328125 -26.644531 8.921875 -27.71875 10.765625 -28.5 C 12.617188 -29.28125 14.59375 -29.671875 16.6875 -29.671875 C 18.738281 -29.671875 20.648438 -29.269531 22.421875 -28.46875 C 24.191406 -27.664062 25.71875 -26.570312 27 -25.1875 C 28.289062 -23.8125 29.300781 -22.160156 30.03125 -20.234375 C 30.757812 -18.316406 31.125 -16.238281 31.125 -14 L 31.125 -11.984375 L 9.40625 -11.984375 C 9.925781 -10.148438 10.929688 -8.671875 12.421875 -7.546875 C 13.921875 -6.429688 15.675781 -5.875 17.6875 -5.875 C 18.957031 -5.875 20.148438 -6.078125 21.265625 -6.484375 C 22.390625 -6.898438 23.34375 -7.484375 24.125 -8.234375 Z M 16.515625 -23.34375 C 14.765625 -23.34375 13.253906 -22.8125 11.984375 -21.75 C 10.710938 -20.6875 9.832031 -19.257812 9.34375 -17.46875 L 23.625 -17.46875 C 23.132812 -19.1875 22.242188 -20.59375 20.953125 -21.6875 C 19.671875 -22.789062 18.191406 -23.34375 16.515625 -23.34375 Z M 16.515625 -23.34375 "/></g></g></g><g clip-path="url(#22fa5a5604)"><g clip-path="url(#9d544e7acd)"><path fill="#f2f2f2" d="M 70.484375 206.730469 L 310.425781 206.730469 L 310.425781 216.761719 L 70.484375 216.761719 Z M 70.484375 206.730469 " fill-opacity="1" fill-rule="nonzero"/></g></g></svg>