<svg xmlns="http://www.w3.org/2000/svg" xmlns:xlink="http://www.w3.org/1999/xlink" width="375" zoomAndPan="magnify" viewBox="0 0 375 374.999991" height="270" preserveAspectRatio="xMidYMid meet" version="1.0"><defs><g/><clipPath id="3432429c49"><path d="M 72.667969 249.691406 L 312.609375 249.691406 L 312.609375 259.722656 L 72.667969 259.722656 Z M 72.667969 249.691406 " clip-rule="nonzero"/></clipPath><clipPath id="30c84e9d62"><path d="M 72.667969 249.691406 L 74.839844 259.722656 L 312.609375 250.234375 L 312.472656 249.691406 Z M 72.667969 249.691406 " clip-rule="nonzero"/></clipPath></defs><g fill="#f2f2f2" fill-opacity="1"><g transform="translate(80.256339, 240.650955)"><g><path d="M 0.5 -18.5625 L 14.375 -35.953125 C 21.175781 -30.046875 27.726562 -25.722656 34.03125 -22.984375 C 40.332031 -20.253906 46.992188 -18.890625 54.015625 -18.890625 C 61.253906 -18.890625 67.046875 -20.226562 71.390625 -22.90625 C 75.742188 -25.582031 77.921875 -29.148438 77.921875 -33.609375 C 77.921875 -37.617188 76.441406 -40.738281 73.484375 -42.96875 C 70.535156 -45.195312 65.601562 -46.867188 58.6875 -47.984375 L 35.453125 -52 C 25.421875 -53.675781 17.8125 -57.1875 12.625 -62.53125 C 7.4375 -67.882812 4.84375 -74.800781 4.84375 -83.28125 C 4.84375 -94.195312 8.992188 -102.832031 17.296875 -109.1875 C 25.609375 -115.539062 36.84375 -118.71875 51 -118.71875 C 59.46875 -118.71875 68.019531 -117.269531 76.65625 -114.375 C 85.300781 -111.476562 92.859375 -107.46875 99.328125 -102.34375 L 86.28125 -84.28125 C 80.039062 -89.070312 73.910156 -92.609375 67.890625 -94.890625 C 61.867188 -97.179688 55.679688 -98.328125 49.328125 -98.328125 C 42.859375 -98.328125 37.671875 -97.128906 33.765625 -94.734375 C 29.867188 -92.335938 27.921875 -89.128906 27.921875 -85.109375 C 27.921875 -81.546875 29.203125 -78.757812 31.765625 -76.75 C 34.335938 -74.75 38.628906 -73.300781 44.640625 -72.40625 L 66.71875 -68.734375 C 78.3125 -66.835938 87.035156 -63.128906 92.890625 -57.609375 C 98.742188 -52.085938 101.671875 -44.8125 101.671875 -35.78125 C 101.671875 -24.414062 97.179688 -15.332031 88.203125 -8.53125 C 79.234375 -1.726562 67.28125 1.671875 52.34375 1.671875 C 42.976562 1.671875 33.75 -0.109375 24.65625 -3.671875 C 15.570312 -7.242188 7.519531 -12.207031 0.5 -18.5625 Z M 0.5 -18.5625 "/></g></g></g><g fill="#f2f2f2" fill-opacity="1"><g transform="translate(181.568083, 240.650955)"><g><path d="M 10.53125 0 L 10.53125 -117.046875 L 55.515625 -117.046875 C 64.210938 -117.046875 72.347656 -115.539062 79.921875 -112.53125 C 87.503906 -109.519531 94.054688 -105.394531 99.578125 -100.15625 C 105.097656 -94.925781 109.445312 -88.6875 112.625 -81.4375 C 115.800781 -74.1875 117.390625 -66.4375 117.390625 -58.1875 C 117.390625 -50.050781 115.800781 -42.414062 112.625 -35.28125 C 109.445312 -28.144531 105.097656 -21.984375 99.578125 -16.796875 C 94.054688 -11.617188 87.503906 -7.523438 79.921875 -4.515625 C 72.347656 -1.503906 64.210938 0 55.515625 0 Z M 55.34375 -95.484375 L 34.78125 -95.484375 L 34.78125 -21.578125 L 55.34375 -21.578125 C 60.476562 -21.578125 65.300781 -22.519531 69.8125 -24.40625 C 74.332031 -26.300781 78.265625 -28.894531 81.609375 -32.1875 C 84.953125 -35.476562 87.570312 -39.351562 89.46875 -43.8125 C 91.363281 -48.269531 92.3125 -53.0625 92.3125 -58.1875 C 92.3125 -63.425781 91.363281 -68.332031 89.46875 -72.90625 C 87.570312 -77.476562 84.953125 -81.4375 81.609375 -84.78125 C 78.265625 -88.125 74.332031 -90.742188 69.8125 -92.640625 C 65.300781 -94.535156 60.476562 -95.484375 55.34375 -95.484375 Z M 55.34375 -95.484375 "/></g></g></g><g clip-path="url(#3432429c49)"><g clip-path="url(#30c84e9d62)"><path fill="#f2f2f2" d="M 72.667969 249.691406 L 312.609375 249.691406 L 312.609375 259.722656 L 72.667969 259.722656 Z M 72.667969 249.691406 " fill-opacity="1" fill-rule="nonzero"/></g></g></svg>